<?xml version="1.0" encoding="UTF-8"?>
<!-- Generator: visioncortex VTracer 0.6.2 -->
<svg version="1.1" xmlns="http://www.w3.org/2000/svg" width="1280" height="1280">
<path d="M0 0 C212.19 0 424.38 0 643 0 C644.6943009 3.3886018 644.14042643 7.24509972 644.13422108 10.97277832 C644.13657331 11.91855928 644.13892554 12.86434025 644.14134905 13.83878124 C644.14806644 17.0442248 644.14758 20.24962809 644.14717102 23.45507812 C644.15046799 25.7621142 644.1541932 28.06914971 644.1583125 30.37618446 C644.16730453 36.07534852 644.17156332 41.77450271 644.17383147 47.4736731 C644.17678948 54.2973707 644.1854848 61.12105796 644.19424575 67.94475015 C644.21511266 84.44479618 644.2255653 100.94484402 644.23437535 117.44490018 C644.23858054 125.25260102 644.24380285 133.0603011 644.24905988 140.8680013 C644.26695618 167.59824787 644.28194991 194.32849467 644.28938007 221.05874634 C644.28985483 222.73773539 644.29033072 224.41672444 644.29080774 226.0957135 C644.2911623 227.34466003 644.2911623 227.34466003 644.29152403 228.61883781 C644.29272522 232.83736323 644.29394067 237.05588865 644.29516602 241.27441406 C644.29540617 242.11159622 644.29564632 242.94877838 644.29589374 243.81132969 C644.30377958 270.93018545 644.32719347 298.04899736 644.35972196 325.16783398 C644.39405348 353.84229989 644.41373454 382.51674017 644.41702431 411.19122696 C644.41744184 414.34208426 644.4179214 417.49294154 644.41844749 420.64379883 C644.41857069 421.41962278 644.41869388 422.19544674 644.4188208 422.99478051 C644.42114928 435.46020104 644.43679014 447.92557057 644.45728934 460.39097296 C644.47758978 472.93513926 644.48300485 485.47924458 644.47351871 498.02342427 C644.4687752 504.81442684 644.47084676 511.60525474 644.49028015 518.39623642 C644.50794165 524.62201514 644.50688947 530.84750895 644.49138286 537.07329082 C644.4890113 539.31714692 644.49330663 541.5610229 644.50521151 543.80484867 C644.5677203 556.3722115 643.72205564 567.79981583 640.49864104 579.96365476 C639.60640087 583.60737618 638.99619378 587.30205861 638.375 591 C637.23389021 597.76610979 637.23389021 597.76610979 635 600 C634.43768789 601.85903809 634.43768789 601.85903809 634.10546875 604 C633.957146 604.79978271 633.80882324 605.59956543 633.65600586 606.42358398 C633.50139893 607.27380127 633.34679199 608.12401855 633.1875 609 C631.93068357 615.47558554 630.46078907 620.91365611 627.15234375 626.67578125 C625.77814772 629.44746477 625.16365532 632.10668063 624.5 635.125 C623.4421034 639.84345929 621.93484427 643.01272247 619.1875 646.9375 C617.75453766 649.42632933 617.16700164 651.77322042 616.5 654.5625 C615.43068878 658.95452968 614.04096474 661.76811869 611.25 665.2734375 C609.39905103 667.83006077 608.32520266 670.62594715 607.10546875 673.5234375 C604.55111163 679.24591953 601.47488904 684.78766644 598 690 C597.34 690 596.68 690 596 690 C595.773125 691.03125 595.54625 692.0625 595.3125 693.125 C594.11138965 697.36777109 592.06435454 699.8590366 589 703 C588.34 703 587.68 703 587 703 C586.9071875 704.0209375 586.9071875 704.0209375 586.8125 705.0625 C585.73598615 708.95451162 583.74334968 712.03444754 581 715 C580.34 715 579.68 715 579 715 C578.73574219 715.73605469 578.47148438 716.47210937 578.19921875 717.23046875 C575.26928323 723.99699736 569.59185398 729.58927197 564.7265625 735.0546875 C563.6236738 736.2973087 562.53366061 737.55155877 561.4609375 738.8203125 C557.57636515 743.39377453 553.44915314 747.7168638 549.25 752 C548.68265137 752.58869873 548.11530273 753.17739746 547.53076172 753.78393555 C546.07797322 755.24861797 544.54373109 756.63150325 543 758 C542.01 758 541.02 758 540 758 C539.814375 758.721875 539.62875 759.44375 539.4375 760.1875 C537.74633075 763.49630941 536.03067936 764.65485344 532.94921875 766.59375 C530.85553871 768.02489075 530.85553871 768.02489075 528.765625 770.23828125 C525.37421546 773.62490066 521.76622887 776.65092378 518.0625 779.6875 C517.37220703 780.26822266 516.68191406 780.84894531 515.97070312 781.44726562 C512.12375553 784.60139802 508.93600597 786.80269026 504 788 C504 788.66 504 789.32 504 790 C501.96176988 791.40557304 499.94223094 792.68539281 497.8125 793.9375 C497.23435547 794.28490234 496.65621094 794.63230469 496.06054688 794.99023438 C494.37759157 796.00000756 492.68886592 797.00014385 491 798 C487.48268632 800.08492349 484.04797571 802.26378664 480.625 804.5 C476.49177528 807.14437496 472.54145259 809.18341897 468 811 C466.92685547 811.65548828 466.92685547 811.65548828 465.83203125 812.32421875 C462.18243014 814.48377582 458.40046922 816.26522336 454.5625 818.0625 C453.82451172 818.41376953 453.08652344 818.76503906 452.32617188 819.12695312 C448.27303087 821.03283009 444.26520266 822.61334485 440 824 C438.77655055 824.6167184 437.56608189 825.2603781 436.375 825.9375 C432.00569465 828.20617778 427.51302132 829.18512273 422.73828125 830.28515625 C419.88818214 830.92434692 419.88818214 830.92434692 417.0625 832.5 C413.10288416 834.43940368 409.14427438 835.18094965 404.84765625 836.11328125 C399.66407651 837.30787272 394.56091764 838.74751019 389.44433594 840.19873047 C384.64888115 841.55583345 379.84058989 842.8130983 375 844 C373.70765759 848.92935174 373.87479388 853.79594297 373.9042511 858.85099792 C373.90697809 860.34986958 373.90697809 860.34986958 373.90976018 861.87902147 C373.91714694 865.23082203 373.93184014 868.58255025 373.9465332 871.93432617 C373.95340255 874.33572783 373.95985188 876.73713071 373.96591187 879.13853455 C373.98197759 884.98529347 374.00292719 890.83202236 374.02648989 896.67875477 C374.04560675 901.42880494 374.06309306 906.17885831 374.07942772 910.92891884 C374.12590265 924.39162454 374.17659296 937.85430465 374.23277078 951.31697341 C374.23579773 952.04244787 374.23882468 952.76792233 374.24194336 953.51538086 C374.24497485 954.24173874 374.24800635 954.96809661 374.25112971 955.71646533 C374.30006597 967.50325414 374.3389812 979.29005207 374.37336431 991.0768915 C374.40876765 1003.17500536 374.45155469 1015.27307338 374.50211972 1027.37113363 C374.53036537 1034.16527034 374.55553061 1040.95938666 374.5727787 1047.75356102 C374.58904986 1054.13686085 374.61554728 1060.52006642 374.64908981 1066.90329933 C374.65980152 1069.25194616 374.66707848 1071.60061141 374.67075539 1073.94927979 C374.67628 1077.14295961 374.69393265 1080.33634212 374.71479797 1083.529953 C374.71354536 1084.47010811 374.71229274 1085.41026321 374.71100217 1086.37890786 C374.72312546 1087.65517854 374.72312546 1087.65517854 374.73549366 1088.95723248 C374.73831405 1089.69497676 374.74113445 1090.43272104 374.74404031 1091.1928212 C374.8510039 1093.25164252 374.8510039 1093.25164252 377 1095 C378.96184817 1095.30166409 378.96184817 1095.30166409 381.24579334 1095.25053978 C382.14192461 1095.25553848 383.03805587 1095.26053717 383.96134263 1095.26568735 C384.95208006 1095.26102413 385.94281749 1095.25636092 386.96357727 1095.2515564 C388.01123125 1095.25452654 389.05888523 1095.25749667 390.13828629 1095.26055682 C393.67207939 1095.26823577 397.20570817 1095.26168686 400.73950195 1095.25537109 C403.26367303 1095.25811916 405.78784324 1095.26179793 408.31201172 1095.26634216 C413.75934995 1095.27447216 419.20664322 1095.27678036 424.65398598 1095.27439499 C432.53543784 1095.27130209 440.41681765 1095.28291967 448.29825141 1095.29894479 C461.0916501 1095.32492682 473.88504884 1095.3449349 486.6784668 1095.35839844 C487.44461224 1095.35920881 488.21075768 1095.36001918 489.00011965 1095.3608541 C499.87058759 1095.37207341 510.74105041 1095.37735599 521.61152335 1095.38024123 C522.37675922 1095.38044522 523.14199509 1095.38064921 523.93041992 1095.38085938 C525.07687802 1095.38115928 525.07687802 1095.38115928 526.24649689 1095.38146524 C538.98751317 1095.385197 551.72845148 1095.40427525 564.46942872 1095.43595374 C572.33123122 1095.45488258 580.19283392 1095.46082114 588.05465295 1095.45013656 C594.07847911 1095.4430762 600.10207675 1095.4565789 606.12587738 1095.47775459 C608.59904915 1095.48309199 611.0722465 1095.48155357 613.54540825 1095.47271919 C616.91576719 1095.46164895 620.28517164 1095.47497155 623.6554718 1095.49447632 C624.63951707 1095.48535166 625.62356233 1095.476227 626.63742715 1095.46682584 C630.91332781 1095.51514118 633.35252367 1095.61284201 637.08403301 1097.84409523 C640.45644017 1101.63883112 640.15095938 1105.16207946 640.22119141 1110.05419922 C640.2326973 1110.76837006 640.24420319 1111.48254089 640.25605774 1112.21835327 C640.29275322 1114.58042103 640.32240052 1116.94251557 640.3515625 1119.3046875 C640.37468387 1120.94752369 640.39807425 1122.59035612 640.42172241 1124.23318481 C640.47017783 1127.67804618 640.51510375 1131.12293143 640.55761719 1134.56787109 C640.61236729 1138.97855598 640.67622431 1143.38905347 640.74279213 1147.7995739 C640.79293729 1151.19332195 640.83803213 1154.58712298 640.88163376 1157.98096085 C640.90316551 1159.60684528 640.92630752 1161.23270922 640.9510994 1162.85854721 C640.98508714 1165.13467076 641.01222028 1167.41077803 641.03759766 1169.68701172 C641.05456696 1170.9814621 641.07153625 1172.27591248 641.08901978 1173.60958862 C641 1177 641 1177 640 1182 C427.48 1182 214.96 1182 -4 1182 C-4 1154.28 -4 1126.56 -4 1098 C4.9999221 1095.75001947 4.9999221 1095.75001947 8.92719746 1095.74666691 C10.27026351 1095.73824381 10.27026351 1095.73824381 11.64046222 1095.72965056 C12.59952305 1095.73363165 13.55858388 1095.73761274 14.54670715 1095.74171448 C15.5845646 1095.73803877 16.62242205 1095.73436307 17.69172972 1095.73057598 C21.15627206 1095.72062571 24.62065295 1095.72474083 28.08520508 1095.72875977 C30.57409841 1095.72437121 33.06299027 1095.71906859 35.55187988 1095.71292114 C40.90416862 1095.70143349 46.2564157 1095.69576977 51.60871315 1095.69503975 C59.35041201 1095.6937118 67.09203891 1095.67858111 74.8337123 1095.65954458 C87.39979344 1095.62874013 99.9658764 1095.60455487 112.53198242 1095.58666992 C113.28329702 1095.58559724 114.03461161 1095.58452456 114.80869331 1095.58341938 C123.19883592 1095.57158856 131.58897925 1095.56138292 139.97912598 1095.55297852 C143.02604169 1095.54990423 146.07295738 1095.54681551 149.11987305 1095.54370117 C149.87178493 1095.54293583 150.62369681 1095.54217049 151.39839391 1095.54138196 C163.92487953 1095.52831186 176.45131273 1095.50369287 188.97775954 1095.46995777 C196.70327643 1095.44965031 204.42868129 1095.43938075 212.15422507 1095.44194698 C218.06534686 1095.44310195 223.97636806 1095.42898734 229.8874588 1095.40913773 C232.31632284 1095.40351693 234.74520497 1095.40307239 237.17407036 1095.40807533 C240.47898729 1095.41417131 243.78334316 1095.40206753 247.08821106 1095.38526917 C248.0584255 1095.39148098 249.02863993 1095.3976928 250.02825481 1095.40409285 C250.91059344 1095.39586971 251.79293208 1095.38764656 252.70200825 1095.37917423 C253.46508645 1095.37835978 254.22816466 1095.37754532 255.01436645 1095.37670618 C257.59926406 1094.8863101 258.47081107 1094.12403312 260 1092 C260.4440155 1089.99003397 260.4440155 1089.99003397 260.36914349 1087.74213123 C260.37511663 1086.86879259 260.38108978 1085.99545395 260.38724393 1085.09565049 C260.3785054 1084.13554289 260.36976688 1083.17543529 260.36076355 1082.18623352 C260.36332682 1081.16686571 260.3658901 1080.1474979 260.36853105 1079.09724015 C260.37349108 1075.66533557 260.35693918 1072.23386632 260.34057617 1068.80200195 C260.33973038 1066.34838878 260.3402041 1063.89477484 260.34190369 1061.44116211 C260.34258789 1056.1503923 260.33405281 1050.85975924 260.31719017 1045.56902504 C260.29282545 1037.91950329 260.2849975 1030.27003524 260.2812262 1022.62047889 C260.27465773 1010.21009029 260.25468588 997.7997608 260.22631836 985.3894043 C260.19878799 973.33276668 260.17754942 961.27614511 260.16479492 949.21948242 C260.16400675 948.47650869 260.16321858 947.73353497 260.16240653 946.96804688 C260.15849146 943.24082514 260.15470032 939.51360329 260.15097082 935.78638136 C260.11986261 904.8575446 260.06679334 873.92878127 260 843 C259.31796005 842.79617203 258.6359201 842.59234406 257.93321228 842.38233948 C256.58749901 841.97954018 256.58749901 841.97954018 255.21459961 841.56860352 C253.88216469 841.17004906 253.88216469 841.17004906 252.52281189 840.76344299 C249.52465259 839.85615232 246.54482076 838.89541057 243.5625 837.9375 C238.54603329 836.37392596 233.64171164 835.29590295 228.4375 834.58984375 C225.54808371 833.89064205 223.54137336 832.52560239 221 831 C219.08082096 830.45204129 217.14037028 829.97457355 215.1875 829.5625 C210.73416506 828.52266262 207.02911271 827.22754483 203.04248047 825.01977539 C201.00582714 824.00290939 199.04967891 823.32062438 196.875 822.65625 C191.7775473 820.99789817 187.01358457 818.81927617 182.1875 816.5 C181.35541016 816.10941406 180.52332031 815.71882812 179.66601562 815.31640625 C173.51033485 812.38418943 173.51033485 812.38418943 170.94262695 810.45117188 C168.72870189 808.79733619 166.40623276 807.91679321 163.859375 806.8828125 C161.2168718 805.62817863 159.00534728 803.92369179 156.66796875 802.1796875 C154.88618106 800.8563794 154.88618106 800.8563794 152.25 799.625 C145.34409291 796.17204646 138.97891923 791.86933452 133 787 C131.4828168 785.8307946 129.96547761 784.66177853 128.4440918 783.49804688 C126.18110463 781.76702931 123.92474361 780.02748025 121.66894531 778.28710938 C120.09055938 777.06984041 118.51018315 775.85515346 116.9296875 774.640625 C116.02476562 773.93421875 115.11984375 773.2278125 114.1875 772.5 C113.37667969 771.8709375 112.56585938 771.241875 111.73046875 770.59375 C111.15941406 770.0678125 110.58835937 769.541875 110 769 C110 768.34 110 767.68 110 767 C109.4121875 766.72961914 108.824375 766.45923828 108.21875 766.18066406 C100.28089985 761.95669363 93.91514685 754.13180883 87.58203125 747.82226562 C86.00966044 746.25960081 84.42690516 744.70797777 82.84375 743.15625 C75.53172473 735.91948684 69.40265099 728.287883 63.8125 719.625 C62.05850803 716.90427322 62.05850803 716.90427322 59.5625 714.625 C56.93028812 711.92858783 55.18510705 709.2719039 53.265625 706.05859375 C52.01430735 704.02327152 50.6654303 702.11134636 49.25 700.1875 C47 697 47 697 46 694 C45.4225 693.484375 44.845 692.96875 44.25 692.4375 C41.44613921 689.39998414 39.97928055 686.16527226 38.24609375 682.4375 C37.07777059 679.97837449 37.07777059 679.97837449 35.43359375 677.92578125 C33.99658747 675.99541587 33.33966673 674.46608029 32.625 672.1875 C31.58647882 669.209307 30.3949178 667.03079811 28.4375 664.5625 C25.88866104 661.23463904 25.30946171 658.31316911 24.58984375 654.2421875 C23.94559994 651.79320771 23.00776016 650.25460801 21.5625 648.1875 C18.05432831 643.04979293 16 636.24953571 16 630 C15.34 630 14.68 630 14 630 C11.29578882 624.16904465 9.84744709 618.49878246 8.5390625 612.22851562 C7.79632216 608.84661187 7.04377369 606.08654237 5.46875 602.97265625 C3.40024086 598.78612578 2.87818792 594.48390092 2.18359375 589.921875 C1.44295852 585.46103755 0.214409 581.93672711 -2 578 C-5.02168251 572.62811999 -5.12538292 567.10212545 -5.12939453 561.03588867 C-5.13114685 560.36671921 -5.13289917 559.69754974 -5.13470459 559.00810242 C-5.13908019 556.81136425 -5.13619929 554.61470764 -5.1328125 552.41796875 C-5.13348701 550.87868739 -5.13445826 549.33940612 -5.13571167 547.80012512 C-5.13718304 544.5782469 -5.13505301 541.35639647 -5.13037109 538.13452148 C-5.12468858 534.02596147 -5.127947 529.917467 -5.13394356 525.80890942 C-5.13757665 522.63026954 -5.13639776 519.4516449 -5.13381577 516.27300453 C-5.13315333 514.75930079 -5.13395075 513.24559561 -5.13629532 511.73189354 C-5.14552941 504.0919481 -5.06435414 496.57889909 -4 489 C0.69775149 487.80621671 5.25260098 487.85557835 10.06423664 487.8613348 C10.98341603 487.85849258 11.90259541 487.85565036 12.84962872 487.85272202 C15.94633637 487.84436429 19.04300666 487.84310596 22.13972473 487.84178162 C24.37555791 487.837217 26.61139023 487.83221713 28.84722155 487.82681805 C35.00417436 487.81321609 41.16112164 487.80581262 47.31808555 487.79939139 C53.27175353 487.79221704 59.22541173 487.78039354 65.17907209 487.76867336 C77.3592579 487.74485699 89.53944691 487.72565526 101.71964455 487.70907402 C113.78138481 487.692639 125.84311908 487.67415876 137.90485191 487.65294075 C138.65452182 487.65162314 139.40419173 487.65030554 140.17657891 487.648948 C143.98369847 487.64224601 147.79081796 487.63550742 151.59793743 487.62875474 C178.5710638 487.58097841 205.54419576 487.5377972 232.51733398 487.49731445 C258.7230673 487.45797296 284.92879593 487.41653572 311.13452148 487.37231445 C312.78212668 487.36953711 314.42973189 487.36675983 316.07733709 487.36398262 C329.46459506 487.34140573 342.85185279 487.31868405 356.23911046 487.29592726 C418.15939768 487.19077436 480.07969691 487.09620357 542 487 C542 357.97 542 228.94 542 96 C503.48410156 95.95101562 464.96820312 95.90203125 425.28515625 95.8515625 C402.39742265 95.81830534 379.50969084 95.78491352 356.62196147 95.74901867 C343.20069946 95.72798029 329.7794373 95.70703455 316.35817469 95.68637431 C314.73476088 95.68387503 313.11134707 95.68137284 311.48793327 95.6788677 C285.60567887 95.63895214 259.72342106 95.60545585 233.84115359 95.57531309 C207.24123017 95.54430052 180.64132365 95.50678847 154.0414212 95.46109388 C150.28470386 95.45464344 146.52798639 95.44826734 142.77126884 95.44193649 C142.03189014 95.44068819 141.29251144 95.43943988 140.53072733 95.43815375 C128.62692461 95.41824756 116.72312376 95.40519651 104.81930943 95.39470672 C92.85308104 95.38401572 80.88688071 95.36610815 68.92067409 95.34083296 C62.43667347 95.32744069 55.95270989 95.31729881 49.46869469 95.31578636 C43.5338786 95.31433128 37.59915176 95.30374639 31.66436308 95.28586559 C29.51617375 95.28101113 27.36797366 95.27952215 25.21977998 95.28172119 C22.3006558 95.28421909 19.38181537 95.27448016 16.46272373 95.26171303 C15.62804204 95.26536271 14.79336036 95.26901239 13.93338528 95.27277267 C0.16910822 95.16910822 0.16910822 95.16910822 -4 91 C-4.20371597 88.33588155 -4.28319531 85.77527773 -4.2746582 83.10961914 C-4.27976913 82.29484604 -4.28488007 81.48007294 -4.29014587 80.64060974 C-4.30408215 77.93871785 -4.30308207 75.23707988 -4.30078125 72.53515625 C-4.30466603 70.66189987 -4.30900024 68.78864436 -4.31376648 66.91539001 C-4.32123742 62.98531237 -4.32093115 59.05532454 -4.31567383 55.12524414 C-4.30987871 50.08318335 -4.32680697 45.04148983 -4.3500185 39.99948978 C-4.36473435 36.12965232 -4.36563047 32.25990374 -4.36250877 28.39004326 C-4.36302309 26.53086049 -4.36828146 24.6716729 -4.37832069 22.81251717 C-4.39062602 20.21469229 -4.38392921 17.6175883 -4.37231445 15.01977539 C-4.37995819 14.24824127 -4.38760193 13.47670715 -4.39547729 12.68179321 C-4.34326522 7.41152169 -4.34326522 7.41152169 -2.53923035 5.24876404 C-2.03128433 4.83667191 -1.52333832 4.42457977 -1 4 C-0.67 2.68 -0.34 1.36 0 0 Z M106 579 C105.40680158 587.70024348 107.71459193 596.16791782 111.8828125 603.77734375 C114.33796167 608.66188879 116.09601686 613.8810945 118 619 C118.66 619 119.32 619 120 619 C120.07476562 619.556875 120.14953125 620.11375 120.2265625 620.6875 C121.18814051 626.26842333 122.9061983 629.66839891 126.484375 634.01953125 C128.01988029 636.0259776 129.06036372 637.9644118 130.125 640.25 C131.27587112 642.70392355 132.05028404 644.05028404 134 646 C136.48341433 648.48341433 137.58999851 651.09446008 138.97265625 654.29296875 C139.95675517 656.34656816 139.95675517 656.34656816 143 657 C143.70394612 658.31403276 144.36345658 659.6520257 145 661 C146.91859167 663.73219193 146.91859167 663.73219193 149 666 C149.66 666 150.32 666 151 666 C151.24105469 666.55816406 151.48210937 667.11632812 151.73046875 667.69140625 C153.26886579 670.48892209 155.15561964 672.58486915 157.3125 674.9375 C158.07175781 675.77152344 158.83101562 676.60554687 159.61328125 677.46484375 C170.74354882 689.28733746 182.6881131 699.87952728 196.51953125 708.421875 C198.77131948 709.85450877 200.87306757 711.39139564 203 713 C205.3158533 714.37965729 207.63930109 715.70079591 210 717 C211.010625 717.56332031 212.02125 718.12664062 213.0625 718.70703125 C220.6810984 722.89737618 220.6810984 722.89737618 228.73046875 726.1171875 C231.32617576 727.12687732 233.76147931 728.38952487 236.24243164 729.65014648 C243.85659668 733.46630828 250.34683379 735.1021453 259 735 C260.80933687 731.11775627 261.24938554 728.06885665 261.24723816 723.80026245 C261.25143265 722.55242981 261.25562714 721.30459717 261.25994873 720.01895142 C261.2544659 718.64398115 261.24878294 717.26901167 261.24291992 715.89404297 C261.24399334 714.44006261 261.2459329 712.98608267 261.24867249 711.53210449 C261.25351362 707.59013371 261.24587486 703.64827639 261.23571944 699.70631933 C261.22692918 695.58107986 261.22869656 691.45584385 261.2290802 687.33059692 C261.22814415 680.40543725 261.21946709 673.48032144 261.20581055 666.55517578 C261.19007327 658.54522692 261.18481291 650.53532605 261.1855461 642.52536285 C261.18615609 634.82119383 261.18105409 627.11704045 261.17275429 619.41287613 C261.16922118 616.13303633 261.167391 612.85320206 261.16686058 609.57336044 C261.16585722 605.71397898 261.15976117 601.85463791 261.14969444 597.99526978 C261.14677004 596.57747775 261.14554395 595.15968107 261.14612198 593.74188614 C261.14661166 591.80984315 261.14034627 589.87780193 261.13371277 587.94577026 C261.13203692 586.86362684 261.13036108 585.78148342 261.12863445 584.66654778 C261.11530762 581.89567441 261.11530762 581.89567441 260 579 C257.30285933 577.65142966 255.18891856 577.85353823 252.16775513 577.82832336 C250.30435989 577.80930466 250.30435989 577.80930466 248.40332031 577.78990173 C247.01904367 577.78080712 245.63476629 577.77182344 244.25048828 577.76293945 C242.79857026 577.75009032 241.34665577 577.73683603 239.89474487 577.72320557 C235.94433644 577.68754935 231.99390527 577.65834029 228.04343271 577.63081384 C225.57663302 577.61332606 223.10984807 577.59444776 220.64306259 577.57506371 C212.04088105 577.50748412 203.43867963 577.44507554 194.83642578 577.38745117 C186.81227871 577.33356513 178.78827562 577.26846546 170.76425755 577.19811279 C163.88018091 577.13824606 156.99607394 577.08617631 150.11189067 577.04018563 C145.99813242 577.01257123 141.88445727 576.98178449 137.77078629 576.94317055 C133.90163221 576.90712301 130.03253238 576.88076829 126.1632576 576.8618927 C124.74263466 576.85331226 123.32202782 576.84126425 121.90146637 576.82550621 C119.96312697 576.80454416 118.02465382 576.79728036 116.08621216 576.79072571 C114.45853503 576.77884704 114.45853503 576.77884704 112.79797554 576.7667284 C110.00646278 576.99946119 108.37026288 577.55566576 106 579 Z M375 579 C373.60365441 581.79269117 373.87725298 584.07524062 373.87974548 587.20083618 C373.87889106 587.84366275 373.87803663 588.48648932 373.87715632 589.14879549 C373.87550342 591.31227833 373.88101977 593.4756844 373.88647461 595.63916016 C373.88675655 597.1862335 373.88659862 598.73330698 373.8860321 600.28038025 C373.88574439 604.48881693 373.89163692 608.6972253 373.89860606 612.90565538 C373.90484393 617.30057667 373.90544374 621.69549855 373.90663147 626.09042358 C373.9097435 634.41665717 373.91795518 642.74287768 373.92798096 651.06910551 C373.93914606 660.54659976 373.94465355 670.02409463 373.94967639 679.50159383 C373.96013789 699.00106998 373.97773487 718.50053394 374 738 C378.72733133 738.12337045 381.78620687 737.84323469 386.0703125 735.77734375 C388.27733306 734.88828081 390.33774548 734.55159934 392.6875 734.1875 C398.04884555 733.22457949 402.38087246 730.98493973 407.16796875 728.453125 C409.57315176 727.2190173 411.89485697 726.21272013 414.4375 725.3125 C417.65658774 724.12652031 420.12020562 722.82621107 423 721 C424.41244129 720.20081907 425.82963124 719.41000519 427.25 718.625 C428.02859375 718.19316406 428.8071875 717.76132812 429.609375 717.31640625 C431.15796185 716.46367134 432.70986388 715.61691828 434.265625 714.77734375 C439.72479079 711.80916095 444.87451299 708.50962062 450 705 C450.99 704.34 451.98 703.68 453 703 C453 702.34 453 701.68 453 701 C453.55945313 700.74863281 454.11890625 700.49726562 454.6953125 700.23828125 C459.22649976 697.80372809 463.0335362 694.24872273 467 691 C467.87785156 690.31164062 467.87785156 690.31164062 468.7734375 689.609375 C472.079647 686.9853992 474.75939733 684.1014943 477.41015625 680.84375 C480.29382269 677.49954715 483.50137999 674.47902359 486.68359375 671.421875 C491.73586024 666.52010156 496.23418207 661.75783287 499.87890625 655.6796875 C501 654 501 654 503 653 C503.94546662 651.28334481 503.94546662 651.28334481 504.8125 649.25 C506.21999785 646.28213 507.20785535 644.79709358 509.625 642.4375 C512.25560285 640.12837999 512.25560285 640.12837999 512.9375 636.625 C513.9750474 633.08513241 514.58972003 632.11216965 517 629.5625 C519.37874115 627.01096893 520.45671053 625.1665969 521.1875 621.75 C522 618 522 618 523.39453125 616.76171875 C525.90061643 614.01173234 526.52562821 610.57338158 527.5 607.0625 C528.77146161 602.50574566 529.96086948 598.70891135 533 595 C534.74833936 589.47892833 535.30408539 584.77762238 535 579 C533.1911837 577.1911837 530.41262695 577.87381777 527.97756958 577.87301636 C526.66792236 577.87019653 525.35827515 577.86737671 524.00894165 577.86447144 C522.54388414 577.86641606 521.07882677 577.86846425 519.61376953 577.87060547 C518.08156289 577.86925147 516.54935657 577.86747155 515.01715088 577.86529541 C510.84357998 577.86072014 506.67003369 577.86251122 502.49646235 577.8656745 C498.13630257 577.86819853 493.77614496 577.86586035 489.41598511 577.86428833 C482.09030782 577.86246637 474.7646406 577.86487322 467.43896484 577.86962891 C458.96331192 577.87506752 450.48768306 577.87331189 442.01203072 577.8678025 C434.74493043 577.86326727 427.4778374 577.86262296 420.21073616 577.86524117 C415.86621638 577.8668022 411.52170792 577.86700252 407.17718887 577.86370468 C403.09133272 577.86082018 399.00550764 577.86281239 394.91965485 577.86859894 C393.41801124 577.86992359 391.91636502 577.8695374 390.41472244 577.86733627 C388.36861513 577.86461317 386.32250212 577.86862974 384.27639771 577.87301636 C383.13006426 577.87339338 381.98373081 577.87377041 380.80265999 577.87415886 C377.91707013 577.8757789 377.91707013 577.8757789 375 579 Z " fill="#000000" transform="translate(319,50)"/>
<path d="M0 0 C210.87 0 421.74 0 639 0 C639 0.33 639 0.66 639 1 C428.13 1 217.26 1 0 1 C0 0.67 0 0.34 0 0 Z " fill="#FDFDFD" transform="translate(317,1233)"/>
<path d="M0 0 C0.33 0 0.66 0 1 0 C1 170.94 1 341.88 1 518 C0.67 518 0.34 518 0 518 C0 347.06 0 176.12 0 0 Z " fill="#FDFDFD" transform="translate(964,78)"/>
<path d="" fill="#000000" transform="translate(0,0)"/>
</svg>
